<?xml version="1.0" encoding="iso-8859-1"?>
<!-- Generator: Adobe Illustrator 18.1.1, SVG Export Plug-In . SVG Version: 6.00 Build 0)  -->
<svg version="1.1" id="Capa_1" xmlns="http://www.w3.org/2000/svg" xmlns:xlink="http://www.w3.org/1999/xlink" x="0px" y="0px"
	 viewBox="0 0 51.961 51.961" style="enable-background:new 0 0 51.961 51.961;" xml:space="preserve">
<g>
	<path style="fill:#010002;" d="M46.721,2.481c-0.04,0-0.077,0.01-0.116,0.012c-0.039-0.003-0.076-0.012-0.115-0.012H4.964
		c-0.242,0-0.468,0.063-0.67,0.165C1.355,3.6,0,8.957,0,13.981v24c0,6.341,5.159,11.5,11.5,11.5h28.961
		c6.341,0,11.5-5.159,11.5-11.5v-24C51.961,8.442,50.321,2.481,46.721,2.481z M42.99,5.481c-0.995,2.055-1.509,4.908-1.509,7.75
		c0,4.273-3.813,7.75-8.5,7.75h-14c-4.687,0-8.5-3.477-8.5-7.75c0-2.842-0.515-5.695-1.51-7.75H42.99z M48.961,37.98
		c0,4.687-3.813,8.5-8.5,8.5H11.5c-4.687,0-8.5-3.813-8.5-8.5v-24c0-5.273,1.578-8.349,2.24-8.5c0.576,0,2.241,2.665,2.241,7.75
		c0,5.928,5.159,10.75,11.5,10.75h14c6.341,0,11.5-4.822,11.5-10.75c0-5.085,1.665-7.75,2.229-7.751
		c0.673,0.151,2.251,3.227,2.251,8.501V37.98z"/>
	<path style="fill:#010002;" d="M37.989,27.455H15.323c-3.584,0-6.5,2.916-6.5,6.5v0.358c0,3.584,2.916,6.5,6.5,6.5h22.666
		c3.584,0,6.5-2.916,6.5-6.5v-0.358C44.489,30.371,41.573,27.455,37.989,27.455z M41.489,34.313c0,1.93-1.57,3.5-3.5,3.5H15.323
		c-1.93,0-3.5-1.57-3.5-3.5v-0.358c0-1.93,1.57-3.5,3.5-3.5h22.666c1.93,0,3.5,1.57,3.5,3.5V34.313z"/>
	<path style="fill:#010002;" d="M18.24,17.089c1.267,0,2.294-1.581,2.294-3.529v-1.412c0-1.949-1.027-3.529-2.294-3.529
		s-2.294,1.581-2.294,3.529v1.412C15.946,15.509,16.973,17.089,18.24,17.089z"/>
</g>
<g>
</g>
<g>
</g>
<g>
</g>
<g>
</g>
<g>
</g>
<g>
</g>
<g>
</g>
<g>
</g>
<g>
</g>
<g>
</g>
<g>
</g>
<g>
</g>
<g>
</g>
<g>
</g>
<g>
</g>
</svg>
