<?xml version="1.0" encoding="iso-8859-1"?>
<!-- Generator: Adobe Illustrator 19.0.0, SVG Export Plug-In . SVG Version: 6.00 Build 0)  -->
<svg version="1.1" id="Capa_1" xmlns="http://www.w3.org/2000/svg" xmlns:xlink="http://www.w3.org/1999/xlink" x="0px" y="0px"
	 viewBox="0 0 512 512" style="enable-background:new 0 0 512 512;" xml:space="preserve">
<g>
	<g>
		<path d="M496.706,465.883H273.216l216.842-215.949C504.208,235.785,512,216.974,512,196.966c0-20.009-7.792-38.82-21.99-53.018
			L383.123,38.061c-29.206-29.206-76.73-29.206-105.916-0.021L21.94,292.308C7.792,306.457,0,325.268,0,345.278
			c0,20.009,7.792,38.82,21.997,53.024l68.306,67.582H15.293c-8.274,0-14.982,6.708-14.982,14.982
			c0,8.274,6.708,14.982,14.982,14.982h111.453h110.195h259.764c8.274,0,14.982-6.708,14.982-14.982
			C511.687,472.591,504.98,465.883,496.706,465.883z M298.374,59.248c17.525-17.525,46.039-17.524,63.612,0.05l106.885,105.887
			c8.49,8.489,13.164,19.776,13.164,31.781c0.001,12.005-4.674,23.292-13.142,31.759L339.164,357.92L169.18,187.937L298.374,59.248z
			 M230.753,465.882h-97.849v0.001l-89.777-88.826c-17.524-17.525-17.524-46.038-0.021-63.541L147.95,209.082l169.982,169.981
			L230.753,465.882z"/>
	</g>
</g>
<g>
</g>
<g>
</g>
<g>
</g>
<g>
</g>
<g>
</g>
<g>
</g>
<g>
</g>
<g>
</g>
<g>
</g>
<g>
</g>
<g>
</g>
<g>
</g>
<g>
</g>
<g>
</g>
<g>
</g>
</svg>
