<?xml version="1.0" encoding="iso-8859-1"?>
<!-- Generator: Adobe Illustrator 19.0.0, SVG Export Plug-In . SVG Version: 6.00 Build 0)  -->
<svg version="1.1" id="Layer_1" xmlns="http://www.w3.org/2000/svg" xmlns:xlink="http://www.w3.org/1999/xlink" x="0px" y="0px"
	 viewBox="0 0 512.001 512.001" style="enable-background:new 0 0 512.001 512.001;" xml:space="preserve">
<g>
	<g>
		<g>
			<path d="M401.44,71.31L335.361,5.232C332.012,1.883,327.469,0,322.733,0H123.191c-9.864,0-17.861,7.997-17.861,17.861v265.621
				c0,9.864,7.997,17.861,17.861,17.861c8.152,0,66.715,0,74.925,0v60.072h-54.52c-15.78,0-23.807,19.068-12.766,30.352
				l112.405,114.868c7.008,7.162,18.535,7.148,25.53,0L381.17,391.766c11.034-11.277,3.026-30.352-12.766-30.352h-54.52v-60.072
				c8.227,0,66.751,0,74.925,0c9.864,0,17.861-7.997,17.861-17.861V83.939C406.671,79.202,404.789,74.659,401.44,71.31z
				 M325.938,397.134l-69.937,71.471l-69.938-71.471h29.914c9.864,0,17.861-7.997,17.861-17.861v-77.933h44.329v77.933
				c-0.001,9.865,7.996,17.861,17.859,17.861H325.938z M201.442,265.621v-69.845h109.117v69.845
				C297.845,265.621,214.287,265.621,201.442,265.621z M370.95,265.621h-24.67v-87.706c0-9.864-7.997-17.861-17.861-17.861H183.582
				c-9.864,0-17.861,7.997-17.861,17.861v87.706h-24.67v-229.9h174.283l55.615,55.617V265.621z"/>
			<path d="M298.816,64.438h-85.632c-9.864,0-17.861,7.997-17.861,17.861s7.997,17.861,17.861,17.861h85.632
				c9.864,0,17.861-7.997,17.861-17.861S308.681,64.438,298.816,64.438z"/>
		</g>
	</g>
</g>
<g>
</g>
<g>
</g>
<g>
</g>
<g>
</g>
<g>
</g>
<g>
</g>
<g>
</g>
<g>
</g>
<g>
</g>
<g>
</g>
<g>
</g>
<g>
</g>
<g>
</g>
<g>
</g>
<g>
</g>
</svg>
