<?xml version="1.0" encoding="iso-8859-1"?>
<!-- Generator: Adobe Illustrator 19.0.0, SVG Export Plug-In . SVG Version: 6.00 Build 0)  -->
<svg version="1.1" id="Layer_1" xmlns="http://www.w3.org/2000/svg" xmlns:xlink="http://www.w3.org/1999/xlink" x="0px" y="0px"
	 viewBox="0 0 512 512" style="enable-background:new 0 0 512 512;" xml:space="preserve">
<path style="fill:#CFF09E;" d="M132.385,495.058V356.355c0-15.23,12.347-27.577,27.577-27.577h192.077
	c15.23,0,27.577,12.347,27.577,27.577v138.704"/>
<g>
	<path style="fill:#507C5C;" d="M379.614,509.687c-8.079,0-14.629-6.551-14.629-14.629V356.355c0-7.139-5.808-12.948-12.948-12.948
		H159.962c-7.139,0-12.948,5.809-12.948,12.948v138.704c0,8.078-6.549,14.629-14.629,14.629s-14.629-6.551-14.629-14.629V356.355
		c0-23.271,18.933-42.205,42.205-42.205h192.077c23.271,0,42.205,18.933,42.205,42.205v138.704
		C394.242,503.138,387.693,509.687,379.614,509.687z"/>
	<path style="fill:#507C5C;" d="M352.036,174.935H159.962c-23.271,0-42.205-18.933-42.205-42.205V89.234
		c0-8.078,6.549-14.629,14.629-14.629s14.629,6.551,14.629,14.629v43.496c0,7.139,5.808,12.948,12.948,12.948h192.077
		c7.139,0,12.948-5.809,12.948-12.948V16.942c0-8.078,6.549-14.629,14.629-14.629s14.629,6.551,14.629,14.629V132.73
		C394.242,156.002,375.31,174.935,352.036,174.935z"/>
	<path style="fill:#507C5C;" d="M207.724,118.488c-8.079,0-14.629-6.551-14.629-14.629V69.485c0-8.078,6.549-14.629,14.629-14.629
		c8.079,0,14.629,6.551,14.629,14.629v34.375C222.353,111.939,215.804,118.488,207.724,118.488z"/>
	<path style="fill:#507C5C;" d="M440.358,512H71.641c-32.287,0-58.553-26.267-58.553-58.553V58.553C13.086,26.267,39.353,0,71.641,0
		h313.013c12.124,0,23.522,4.722,32.094,13.293l68.872,68.872c8.572,8.574,13.293,19.971,13.293,32.093v339.189
		C498.911,485.733,472.645,512,440.358,512z M71.641,29.257c-16.153,0-29.296,13.141-29.296,29.296v394.894
		c0,16.155,13.142,29.296,29.296,29.296h368.719c16.153,0,29.296-13.141,29.296-29.296V114.258c0-4.307-1.678-8.359-4.724-11.406
		l-68.872-68.871c-3.046-3.047-7.096-4.724-11.406-4.724L71.641,29.257L71.641,29.257z"/>
</g>
<g>
</g>
<g>
</g>
<g>
</g>
<g>
</g>
<g>
</g>
<g>
</g>
<g>
</g>
<g>
</g>
<g>
</g>
<g>
</g>
<g>
</g>
<g>
</g>
<g>
</g>
<g>
</g>
<g>
</g>
</svg>
