<?xml version="1.0" encoding="iso-8859-1"?>
<!-- Generator: Adobe Illustrator 18.0.0, SVG Export Plug-In . SVG Version: 6.00 Build 0)  -->
<!DOCTYPE svg PUBLIC "-//W3C//DTD SVG 1.1//EN" "http://www.w3.org/Graphics/SVG/1.1/DTD/svg11.dtd">
<svg version="1.1" id="Capa_1" xmlns="http://www.w3.org/2000/svg" xmlns:xlink="http://www.w3.org/1999/xlink" x="0px" y="0px"
	 viewBox="0 0 491.879 491.879" style="enable-background:new 0 0 491.879 491.879;" xml:space="preserve">
<g>
	<path d="M462.089,151.673h-88.967c2.115,10.658,2.743,21.353,1.806,31.918h85.05v247.93H212.051v-59.488l-11.615,11.609
		c-5.921,5.733-12.882,10.113-20.304,13.591v36.4c0,16.423,13.363,29.79,29.791,29.79h252.166c16.425,0,29.79-13.367,29.79-29.79
		V181.467C491.879,165.039,478.514,151.673,462.089,151.673z"/>
	<path d="M333.156,201.627c-1.527-3.799-0.837-6.296,0.225-10.065c0.311-1.124,0.613-2.205,0.855-3.3
		c3.189-14.43,1.178-31.357-5.57-46.378c-8.859-19.715-24.563-41.406-44.258-61.103c-32.759-32.773-67.686-52.324-93.457-52.324
		c-9.418,0-16.406,2.624-21.658,6.136L9.937,192.753c-26.248,27.201,3.542,81.343,42.343,120.142
		c32.738,32.738,67.667,52.289,93.419,52.289c13.563,0,22.081-5.506,26.943-10.192l109.896-109.863
		c-0.998,3.653-1.478,6.683-1.478,9.243c0,20.097,16.359,36.459,36.475,36.459c20.115,0,36.494-16.362,36.494-36.459
		C354.029,250.907,354.029,240.375,333.156,201.627z M146.649,326.792c-10.341-0.163-37.364-11.113-67.284-40.984
		c-32.884-32.902-42.807-61.614-42.084-66.191L160.646,96.242c0.289,0.676,0.561,1.335,0.885,2.011
		c8.842,19.712,24.559,41.422,44.256,61.118c20.645,20.645,43.046,36.556,63.225,45.079L146.649,326.792z M281.898,149.465
		c-10.629,0-27.218-5.104-46.128-14.46l-2.88-2.723c-16.508-16.523-29.439-34.173-36.412-49.717c-3.4-7.634-4.445-12.88-4.622-15.75
		c10.724,0.614,36.153,11.76,65.464,41.069c13.045,13.061,24.074,27.23,31.551,40.551
		C287.005,149.127,284.632,149.465,281.898,149.465z"/>
</g>
<g>
</g>
<g>
</g>
<g>
</g>
<g>
</g>
<g>
</g>
<g>
</g>
<g>
</g>
<g>
</g>
<g>
</g>
<g>
</g>
<g>
</g>
<g>
</g>
<g>
</g>
<g>
</g>
<g>
</g>
</svg>
