<?xml version="1.0" encoding="iso-8859-1"?>
<!-- Generator: Adobe Illustrator 17.1.0, SVG Export Plug-In . SVG Version: 6.00 Build 0)  -->
<!DOCTYPE svg PUBLIC "-//W3C//DTD SVG 1.1//EN" "http://www.w3.org/Graphics/SVG/1.1/DTD/svg11.dtd">
<svg version="1.1" id="Capa_1" xmlns="http://www.w3.org/2000/svg" xmlns:xlink="http://www.w3.org/1999/xlink" x="0px" y="0px"
	 viewBox="0 0 475.645 475.645" style="enable-background:new 0 0 475.645 475.645;" xml:space="preserve">
<path d="M437.436,0H38.209c-4.143,0-7.5,3.357-7.5,7.5v92.129c0,4.143,3.357,7.5,7.5,7.5h84.629v10.006c0,4.143,3.357,7.5,7.5,7.5
	h52.782c9.094,0,16.492,7.398,16.492,16.492v327.018c0,4.143,3.357,7.5,7.5,7.5h61.42c4.143,0,7.5-3.357,7.5-7.5V141.127
	c0-9.094,7.398-16.492,16.492-16.492h52.782c4.143,0,7.5-3.357,7.5-7.5v-10.006h84.629c4.143,0,7.5-3.357,7.5-7.5V7.5
	C444.936,3.357,441.578,0,437.436,0z M337.807,109.635h-45.282c-17.365,0-31.492,14.127-31.492,31.492v319.518h-46.42V141.127
	c0-17.365-14.127-31.492-31.492-31.492h-45.282V76.419h199.969V109.635z M352.807,92.129v-23.21c0-4.143-3.357-7.5-7.5-7.5H130.338
	c-4.143,0-7.5,3.357-7.5,7.5v23.21H45.709v-46.42h341.903c4.143,0,7.5-3.357,7.5-7.5s-3.357-7.5-7.5-7.5H45.709V15h384.227v15.709
	h-7.855c-4.143,0-7.5,3.357-7.5,7.5s3.357,7.5,7.5,7.5h7.855v46.42H352.807z M313.32,91.821c0,4.143-3.357,7.5-7.5,7.5h-19.923
	c-18.43,0-33.423,14.993-33.423,33.423v219.277c0,4.143-3.357,7.5-7.5,7.5s-7.5-3.357-7.5-7.5V132.744
	c0-26.7,21.723-48.423,48.423-48.423h19.923C309.963,84.321,313.32,87.679,313.32,91.821z M255.477,391.422v18.4
	c0,4.143-3.357,7.5-7.5,7.5s-7.5-3.357-7.5-7.5v-18.4c0-4.143,3.357-7.5,7.5-7.5S255.477,387.279,255.477,391.422z"/>
<g>
</g>
<g>
</g>
<g>
</g>
<g>
</g>
<g>
</g>
<g>
</g>
<g>
</g>
<g>
</g>
<g>
</g>
<g>
</g>
<g>
</g>
<g>
</g>
<g>
</g>
<g>
</g>
<g>
</g>
</svg>
